<?xml version="1.0" standalone="no"?>
<!DOCTYPE svg PUBLIC "-//W3C//DTD SVG 20010904//EN"
 "http://www.w3.org/TR/2001/REC-SVG-20010904/DTD/svg10.dtd">
<svg version="1.0" xmlns="http://www.w3.org/2000/svg"
 width="700.000000pt" height="700.000000pt" viewBox="0 0 700.000000 700.000000"
 preserveAspectRatio="xMidYMid meet">
<metadata>
Created by potrace 1.14, written by Peter Selinger 2001-2017
</metadata>
<g transform="translate(0.000000,700.000000) scale(0.100000,-0.100000)"
fill="#000000" stroke="none">
<path d="M3093 6765 c-17 -9 -36 -29 -42 -44 -7 -15 -19 -27 -29 -28 -19 -1
-67 -8 -122 -19 -19 -4 -46 -7 -60 -6 -100 6 -141 3 -169 -14 -17 -10 -33 -25
-36 -34 -3 -8 -38 -25 -79 -38 l-73 -23 -38 26 c-32 21 -46 24 -79 19 -91 -13
-134 -48 -143 -113 -6 -45 -8 -46 -138 -116 -38 -21 -83 -47 -100 -59 -23 -16
-45 -20 -106 -21 -68 0 -81 -3 -104 -25 -33 -30 -56 -80 -50 -108 3 -16 -13
-35 -65 -77 -67 -55 -69 -56 -93 -40 -22 14 -29 14 -60 2 -67 -29 -117 -103
-122 -183 -2 -24 -11 -50 -21 -61 -11 -10 -38 -41 -62 -69 -29 -35 -56 -55
-82 -63 -61 -18 -120 -102 -120 -171 0 -19 -24 -70 -68 -143 -53 -90 -72 -114
-89 -114 -71 -1 -116 -84 -120 -220 -2 -76 -9 -110 -41 -205 -22 -62 -43 -129
-47 -148 -4 -19 -23 -59 -41 -87 -48 -72 -66 -140 -98 -353 -21 -142 -28 -546
-12 -695 9 -88 52 -305 72 -366 8 -25 16 -54 18 -65 14 -71 120 -306 193 -427
l35 -58 -40 -107 c-44 -117 -72 -209 -96 -317 -14 -67 -18 -86 -32 -200 -11
-86 -6 -256 10 -357 60 -367 279 -660 661 -885 312 -183 800 -349 1285 -436
77 -14 150 -26 185 -31 22 -3 72 -9 110 -15 39 -5 102 -13 140 -16 39 -4 81
-8 95 -11 154 -27 998 -26 1300 1 102 9 165 15 205 20 22 3 60 7 85 9 25 3 95
12 155 21 61 9 122 18 137 20 14 2 61 10 105 19 43 9 92 18 108 21 17 2 103
23 193 45 731 180 1103 451 1019 741 -42 142 -200 238 -459 278 -205 33 -571
30 -624 -4 -62 -40 -48 -186 22 -232 14 -9 49 -18 78 -19 203 -9 305 -15 331
-18 17 -2 57 -7 90 -11 147 -17 225 -51 225 -96 0 -45 -212 -156 -443 -233
-134 -45 -416 -120 -494 -132 -21 -3 -58 -10 -83 -16 -25 -5 -54 -11 -65 -13
-41 -7 -121 -19 -135 -21 -8 -1 -35 -5 -60 -9 -54 -8 -88 -13 -155 -20 -27 -3
-66 -8 -85 -10 -19 -2 -69 -7 -110 -10 -41 -4 -91 -8 -110 -10 -269 -28 -946
-23 -1265 10 -27 2 -75 7 -105 10 -30 3 -116 15 -190 26 -161 24 -166 25 -285
49 -27 6 -59 12 -70 14 -11 3 -81 20 -155 40 -415 108 -771 271 -1008 461
-149 120 -236 253 -289 440 -34 123 -38 334 -9 475 20 93 50 200 57 200 5 0
20 -18 35 -39 21 -32 24 -43 15 -60 -17 -32 -13 -54 19 -103 32 -49 58 -64
123 -75 34 -5 52 -17 94 -62 32 -35 48 -60 42 -66 -16 -16 -10 -33 22 -70 36
-40 67 -59 143 -84 28 -9 88 -45 133 -80 72 -55 80 -65 68 -78 -19 -18 -19
-27 -1 -61 33 -62 102 -92 199 -85 66 4 72 2 174 -48 58 -29 101 -55 95 -57
-32 -10 9 -72 70 -103 50 -25 124 -31 181 -14 39 12 51 11 126 -11 46 -13 93
-26 105 -29 11 -3 59 -13 106 -24 47 -10 114 -34 150 -54 236 -128 644 -144
1012 -41 166 46 328 124 413 197 28 24 66 49 85 57 46 18 246 116 286 141 17
10 53 22 79 25 86 10 188 76 201 131 8 29 161 153 191 153 36 0 111 37 128 63
9 14 19 42 22 63 5 31 25 60 92 133 84 93 112 121 172 177 16 16 32 39 36 53
3 15 31 65 62 113 51 79 60 87 94 93 47 8 116 71 118 106 2 41 -2 54 -24 71
-21 16 -21 18 -5 51 11 23 31 42 60 56 118 59 211 211 258 427 29 135 12 340
-36 436 -9 18 -12 49 -8 100 3 40 6 107 8 148 2 51 11 91 26 124 40 89 27 219
-28 274 -11 11 -22 39 -25 63 -4 24 -9 63 -12 86 -5 30 -1 58 13 95 39 108 0
237 -82 268 -17 6 -30 29 -51 92 -15 45 -34 95 -41 109 -7 14 -15 54 -18 88
-5 75 -37 143 -81 177 -36 27 -96 121 -143 226 -16 36 -41 73 -54 82 -14 9
-39 36 -57 61 -17 24 -37 50 -44 57 -35 39 -78 100 -102 148 -124 247 -327
427 -682 606 -155 79 -225 104 -333 118 -19 3 -87 24 -150 47 -63 22 -130 46
-148 51 -19 5 -54 25 -78 43 -58 45 -148 63 -194 40 -18 -9 -39 -11 -71 -5
-25 5 -70 11 -99 15 -30 3 -69 15 -87 26 -44 28 -113 35 -150 16 -21 -11 -65
-16 -150 -18 -110 -2 -124 0 -159 20 -51 30 -138 38 -181 16z"/>
</g>
</svg>
